<svg xmlns="http://www.w3.org/2000/svg" xmlns:xlink="http://www.w3.org/1999/xlink" viewBox="0 0 73.3 70.83"><defs><style>.cls-1{stroke:#fff;stroke-miterlimit:10;fill:url(#linear-gradient);}.cls-2{fill:#231f20;}.cls-3{fill:#fff;}.cls-4{fill:#ff1c55;}</style><linearGradient id="linear-gradient" x1="0.5" y1="21.71" x2="40.28" y2="21.71" gradientUnits="userSpaceOnUse"><stop offset="0" stop-color="#fff"/><stop offset="0.06" stop-color="#fbfbfb"/><stop offset="0.13" stop-color="#eee"/><stop offset="0.19" stop-color="#d9d9d9"/><stop offset="0.26" stop-color="#bcbcbc"/><stop offset="0.33" stop-color="#969696"/><stop offset="0.39" stop-color="#686868"/><stop offset="0.46" stop-color="#333"/><stop offset="0.52"/></linearGradient></defs><title>Ресурс 1</title><g id="Слой_2" data-name="Слой 2"><g id="OBJECTS"><path class="cls-1" d="M2,29.17c8.05-2.58,17.31,0,24.38,13,.64,1.24,1.46.93,1.41-.33a19.39,19.39,0,0,0-3.48-11.67c-.11-.26,0-.39.19-.58.81-.6,6.76-1.86,13.42-6.63a4.29,4.29,0,0,0,2.37-4.56c-1.11-7.79-7.32-13.08-9.06-14.14s-1.53.8-1.5,1.08c-.32,6-2.12,14.87-8.57,20.91A5,5,0,0,1,18,23.93s8.69-11.34,6.44-20.39C23.85,1,23.15.09,20.31.67s-9.59,2.71-9.59,2.71-1.05.39-.22,1.46,4.82,5.09,1.57,16.34c-3-1-9.47-2.25-10.12-.48S-.95,29.08,2,29.17Z"/><path class="cls-2" d="M29.72,33.52c-.09.46.4,3.19,0,5.46-.67,1.68-.89,2.7.42,3.73S41.25,48.34,47,54.5c2.2,2.23,3.31-.54,1.68-1.83-.44-.49-2.53-2.35-2.48-3s1.24.59,1.69,1.06c-1.2-2.42,1.42-5.5,4.21-2,1.14,1.1.34,3.71-.63,4.42,1.07-1.07-.79-3.74-2.28-2.25-.77.74,1.34,2.41,1.82,2.82s2.16-1,2.75-2c.44-.61,1.06-1.12,2-5a4.53,4.53,0,0,1,1.57-2.29c.9-.91,14.11-12,15.58-16.64.86-2.43.44-3.28-1.38-1.55s-11.9,9.27-15.71,10.34-4.49-.87-3.93-1.33c.34-.34,8.82-9.52-.61-4.57-3.45,1.27-6.83-1.54-7.54-4.06-1.5-4.79-1.45-5.74-4.85-2.81a27.52,27.52,0,0,1-6.33,3.58c-3.73.89-5.21,5.06-2.19,5.48s4.65-.06,3.83.8-2,1.64-.67,2.4a37.65,37.65,0,0,1,4.16,2.8,1.3,1.3,0,0,0,1.73-.56c.35-.89,0-1.13-.2-1.26s0-.54.59-.47a5.24,5.24,0,0,0,2.29-.71c.33-.24,4.24-.89,5.19.47-1.08.33-1.39-.37-2.93.17-.84.33-2.87.59-3.84,2.76-.71,1.62-1,5-3.91,4s-5.94-1.84-5.47-4.79S31.36,33.63,29.72,33.52Z"/><path class="cls-3" d="M35,35.83a7.4,7.4,0,0,1,2,1.49c.18.19,1.16.28,1.06-.64a5.07,5.07,0,0,0-2.3-1.8C35.42,34.86,34.66,35,35,35.83Z"/><path class="cls-2" d="M6.49,70.68,3.58,66c-.34,0-.86,0-1.58-.07v4.75H.51V59.78l1.16-.06c.71,0,1.24,0,1.56,0q3.93,0,3.93,3.12a2.94,2.94,0,0,1-.63,1.85,2.65,2.65,0,0,1-1.5,1l3.16,5ZM2,61.12v3.54a7.51,7.51,0,0,0,1,.08,3.43,3.43,0,0,0,2-.44,1.74,1.74,0,0,0,.61-1.54A1.42,1.42,0,0,0,5,61.45a4.09,4.09,0,0,0-2.07-.4C2.73,61.05,2.44,61.07,2,61.12Z"/><path class="cls-2" d="M14.11,70.68v-5a2.1,2.1,0,0,0-.44-1.4,1.57,1.57,0,0,0-1.24-.52,2,2,0,0,0-1,.31,2.37,2.37,0,0,0-.79.7v5.92H9.2V59.45h1.41v4.14a2.07,2.07,0,0,1,.91-.73,3,3,0,0,1,1.3-.3,2.47,2.47,0,0,1,2,.84,3.34,3.34,0,0,1,.72,2.27v5Z"/><path class="cls-2" d="M29.68,66.68a4.36,4.36,0,0,1,1-3,3.29,3.29,0,0,1,2.61-1.14,3.34,3.34,0,0,1,2.66,1.09,5.28,5.28,0,0,1,0,6.07,3.32,3.32,0,0,1-2.64,1.11,3.28,3.28,0,0,1-2.65-1.12A4.51,4.51,0,0,1,29.68,66.68Zm1.48,0c0,2,.71,3,2.12,3a1.81,1.81,0,0,0,1.56-.81,3.77,3.77,0,0,0,.56-2.19c0-2-.71-3-2.12-3a1.8,1.8,0,0,0-1.54.79A3.63,3.63,0,0,0,31.16,66.68Z"/><path class="cls-4" d="M44.39,63.36l-.7,1a2.09,2.09,0,0,0-.76-.41,3.26,3.26,0,0,0-1.08-.2,2.26,2.26,0,0,0-1.83.81,3.36,3.36,0,0,0-.68,2.22A3,3,0,0,0,40,68.91a2.53,2.53,0,0,0,1.92.73,3.16,3.16,0,0,0,1.92-.74l.56,1.19a5,5,0,0,1-2.82.74,3.6,3.6,0,0,1-2.69-1.09,4.07,4.07,0,0,1-1.07-3A4.23,4.23,0,0,1,39,63.72a4.2,4.2,0,0,1,4.36-.9A4.19,4.19,0,0,1,44.39,63.36Z"/><path class="cls-4" d="M52.63,66.83H46.89A2.9,2.9,0,0,0,47.65,69a2.46,2.46,0,0,0,1.75.65,3,3,0,0,0,2-.71l.6,1a2.71,2.71,0,0,1-1,.57,5.35,5.35,0,0,1-1.89.31,3.52,3.52,0,0,1-2.55-1,4,4,0,0,1-1.17-3,4.25,4.25,0,0,1,1.2-3.16,3.48,3.48,0,0,1,2.54-1.07,3.64,3.64,0,0,1,2.67,1A3.31,3.31,0,0,1,52.75,66,2.93,2.93,0,0,1,52.63,66.83ZM49.2,63.75a2.21,2.21,0,0,0-1.58.61,2.19,2.19,0,0,0-.69,1.45h4.41a2,2,0,0,0-.54-1.43A2.07,2.07,0,0,0,49.2,63.75Z"/><path class="cls-4" d="M58.56,64.07a1.61,1.61,0,0,0-.93-.32,1.64,1.64,0,0,0-1.31.7,2.56,2.56,0,0,0-.56,1.66v4.57H54.35v-8h1.41V64a2.48,2.48,0,0,1,2.3-1.42,6.42,6.42,0,0,1,1.09.14Z"/><path class="cls-4" d="M59.64,66.68a4.36,4.36,0,0,1,1-3,3.29,3.29,0,0,1,2.62-1.14,3.34,3.34,0,0,1,2.65,1.09,5.28,5.28,0,0,1,0,6.07,3.69,3.69,0,0,1-5.29,0A4.51,4.51,0,0,1,59.64,66.68Zm1.48,0q0,3,2.13,3a1.79,1.79,0,0,0,1.55-.81,3.77,3.77,0,0,0,.56-2.19c0-2-.71-3-2.11-3a1.82,1.82,0,0,0-1.55.79A3.63,3.63,0,0,0,61.12,66.68Z"/><path class="cls-4" d="M67.82,70.21l.49-1.34a3.91,3.91,0,0,0,1.91.77c.87,0,1.31-.37,1.31-1.1,0-.53-.42-1-1.27-1.36A10.31,10.31,0,0,1,69,66.51a3,3,0,0,1-.59-.53,2,2,0,0,1-.49-1.33,1.85,1.85,0,0,1,.71-1.54,3,3,0,0,1,1.87-.55,6.11,6.11,0,0,1,2.19.55l-.4,1.31a2.74,2.74,0,0,0-1.69-.67,1.47,1.47,0,0,0-.85.24.71.71,0,0,0-.34.6,1.26,1.26,0,0,0,.87,1.17l1,.46a3.5,3.5,0,0,1,1.35,1A2.14,2.14,0,0,1,73,68.55a2,2,0,0,1-.75,1.67,3.23,3.23,0,0,1-2.09.61A4.75,4.75,0,0,1,67.82,70.21Z"/><path d="M19,61.45a.89.89,0,0,0,.88-.88A.87.87,0,0,0,19.6,60a.87.87,0,0,0-1.49.62.85.85,0,0,0,.26.62A.83.83,0,0,0,19,61.45Z"/><polygon points="18.21 63.9 18.21 70.68 19.62 70.68 19.62 62.71 18.21 62.71 18.21 63.9"/><path d="M25.57,62.56a2.47,2.47,0,0,0-2.29,1.18v-1H21.87v8h1.41V64.76a2.38,2.38,0,0,1,.81-.72,2.17,2.17,0,0,1,1-.29,1.5,1.5,0,0,1,1.28.51,3.07,3.07,0,0,1,.38,1.79v4.63h1.42V65.75C28.19,63.62,27.31,62.56,25.57,62.56Z"/></g></g></svg>